<?xml version="1.0" encoding="UTF-8"?>
<svg id="Layer_2" data-name="Layer 2" xmlns="http://www.w3.org/2000/svg" viewBox="0 0 69.78 127.65">
  <defs>
    <style>
      .cls-1 {
        fill: #c2c0e0;
      }

      .cls-1, .cls-2 {
        stroke-width: 0px;
      }

      .cls-2 {
        fill: #fff;
      }
    </style>
  </defs>
  <g id="Layer_1-2" data-name="Layer 1-2">
    <path class="cls-2" d="m40.48,20.88c-9.44,2.04-14.32,9.87-11.83,18.95.43,1.56,1.74,2.37,2.77,3.4,10.46,10.5,20.96,20.97,31.42,31.47,9.21,9.25,9.26,20.14.12,29.4-6.32,6.4-12.68,12.76-19.08,19.08-5.95,5.87-12.03,5.97-17.89.23-6.78-6.64-13.53-13.33-20.13-20.15-6.84-7.06-7.66-16.15-2.46-24-.03,2.28,1.65,3.52,3.04,4.92,5.86,5.88,11.72,11.76,17.62,17.6,1.26,1.25,2.26,2.96,4.36,3.05.07,1.39.61,2.21,2.18,1.81,4.22-1.08,7.63-3.15,9.33-7.42,2.23-5.59.86-12.46-3.38-16.7-10.01-10-20.04-19.98-30.01-30.03-8.67-8.74-8.72-19.96-.16-28.67,6.42-6.53,12.89-13,19.43-19.42,5.94-5.83,12.03-5.86,17.89-.1,6.88,6.77,13.75,13.56,20.47,20.5,6.04,6.24,7.06,13.95,3.21,21.97-1.59-1.45-3.2-2.89-4.77-4.37-7.47-7.07-14.17-14.94-22.12-21.52h-.01Z"/>
    <path class="cls-1" d="m40.32,21.84c.06-.42.57-.61.89-.33,7.62,6.46,14.14,14.05,21.38,20.91,1.57,1.48,3.18,2.91,4.77,4.37-.09.31-.13.65-.29.92-5.28,8.44-5.69,8.37-12.84,1.21l-.07-.06c-8.63-7.04-15.63-14.87-13.85-27.01h.01Z"/>
    <path class="cls-1" d="m29.23,106.61c-1.89-1.31-3.91-3.58-5.18-4.83-5.9-5.84-11.76-11.72-17.62-17.6-1.39-1.4-3.07-2.63-3.04-4.92,3.3-5.09,6.97-5.61,11-1.57,2.12,2.12,5.03,5.04,7.79,7.26,6.97,5.6,8.65,13.21,7.05,21.67h0Z"/>
  </g>
</svg>